<?xml version="1.0" standalone="no"?>
<!DOCTYPE svg PUBLIC "-//W3C//DTD SVG 20010904//EN"
 "http://www.w3.org/TR/2001/REC-SVG-20010904/DTD/svg10.dtd">
<svg version="1.0" xmlns="http://www.w3.org/2000/svg"
 width="189.000000pt" height="189.000000pt" viewBox="0 0 189.000000 189.000000"
 preserveAspectRatio="xMidYMid meet">
<metadata>
Created by potrace 1.11, written by Peter Selinger 2001-2013
</metadata>
<g transform="translate(0.000000,189.000000) scale(0.100000,-0.100000)"
fill="#000000" stroke="none">
<path d="M10 1450 l0 -441 63 3 62 3 0 375 0 375 367 3 368 2 0 60 0 60 -430
0 -430 0 0 -440z"/>
<path d="M1040 1830 c0 -50 3 -60 18 -61 9 0 173 -1 365 -1 345 -1 347 -1 352
-22 2 -12 3 -181 3 -376 l-2 -355 52 -3 52 -3 0 440 0 441 -420 0 -420 0 0
-60z"/>
<path d="M1333 1668 c-30 -34 -83 -131 -83 -155 0 -50 71 -70 107 -30 38 41
85 135 78 157 -16 52 -67 66 -102 28z"/>
<path d="M1002 1461 c-11 -6 -9 -20 7 -69 12 -34 21 -64 21 -67 0 -3 -37 -2
-82 1 -215 17 -413 -106 -492 -306 -26 -66 -31 -95 -30 -190 1 -136 42 -236
139 -334 190 -194 498 -194 690 -1 99 99 144 210 143 358 0 50 6 105 17 141
54 184 -54 388 -239 451 -52 18 -156 27 -174 16z m38 -246 c233 -83 334 -347
217 -568 -129 -245 -491 -273 -659 -51 -123 164 -111 377 30 522 105 107 273
147 412 97z"/>
<path d="M703 1075 c-69 -48 -32 -197 41 -169 26 10 47 59 41 100 -7 60 -47
93 -82 69z"/>
<path d="M1073 1077 c-48 -21 -49 -142 -2 -167 44 -24 84 20 82 91 -1 60 -39
95 -80 76z"/>
<path d="M611 789 c22 -97 89 -183 177 -226 135 -66 299 -12 378 123 32 55 56
131 44 139 -5 3 -27 -3 -48 -14 -72 -37 -150 -50 -267 -47 -122 3 -121 3 -219
40 -37 14 -70 26 -71 26 -2 0 1 -18 6 -41z"/>
<path d="M1590 1291 c-96 -26 -110 -36 -110 -76 0 -26 6 -39 26 -51 24 -16 30
-16 98 0 40 9 83 24 94 32 22 15 29 58 14 80 -7 10 -47 35 -54 33 -2 0 -32 -9
-68 -18z"/>
<path d="M14 891 c-2 -2 -4 -204 -4 -448 l0 -443 430 0 431 0 -3 67 -3 68
-357 0 c-196 0 -360 4 -365 8 -4 5 -8 176 -8 380 l0 372 -58 0 c-32 0 -61 -2
-63 -4z"/>
<path d="M1445 879 c-27 -22 -33 -56 -12 -81 21 -26 133 -88 159 -88 31 0 58
29 58 63 0 27 -24 49 -102 96 -52 31 -73 33 -103 10z"/>
<path d="M1779 870 c0 -14 -1 -184 -1 -377 l0 -353 -111 -1 c-62 0 -228 -1
-369 -1 l-258 0 0 -69 0 -69 420 0 420 0 -2 447 -3 448 -47 0 c-45 1 -48 -1
-49 -25z"/>
</g>
</svg>
